<svg width="95" height="71" viewBox="0 0 95 71" fill="none" xmlns="http://www.w3.org/2000/svg">
<path d="M90.2253 49.3269C85.1773 43.153 83.1808 35.4679 70.9973 35.4983C70.6481 35.4983 70.2914 35.5135 69.927 35.5363V12.9139C69.927 11.5014 71.0732 10.3547 72.4852 10.3547H81.1996V8.50942L69.927 6.5198C69.927 6.5198 34.9022 0.444645 23.0907 0.0269782C20.7223 -0.0565552 15.902 0.0269782 13.6171 0.66487C10.1481 1.64449 8.7665 3.19365 8.47045 6.35274C7.89354 12.4431 13.5412 30.2964 13.5412 30.2964L15.8413 30.2737C15.8413 30.2737 11.1652 12.4051 23.0907 8.79799C29.042 6.99822 45.4992 9.07137 51.4582 9.9143C52.7107 10.089 53.6519 11.1597 53.6595 12.4355L53.6975 18.2676L53.7127 20.7205C53.7203 21.9203 52.9536 23.4999 52.0123 24.2441C48.9607 26.6286 43.9962 28.7397 38.7357 30.5167C34.0672 32.0886 29.3456 33.5618 24.4191 33.5542C18.4829 33.5542 9.91273 36.2501 11.9016 52.5239C10.2543 52.2885 8.85759 51.8101 7.94667 50.9824C3.38449 46.8512 3.71091 30.3192 3.71091 30.3192H1.31975C1.31975 30.3192 -2.14174 49.7749 2.14717 55.5691C3.95382 58.0144 8.21995 58.8649 10.4593 59.237C11.1652 59.3585 11.9092 59.4572 12.6759 59.5331C12.8277 61.181 12.9871 62.9124 13.1237 64.5148C13.2148 65.5399 12.5468 66.4816 11.5448 66.7322L3.61982 68.7522V71H39.6314V68.7522L31.2889 66.6715C30.3476 66.436 29.6948 65.5931 29.6948 64.6287V59.3129C37.5515 58.6522 46.061 57.46 53.8341 56.3665V64.5907C53.8341 65.5627 53.1737 66.4057 52.2324 66.6335L43.5332 68.7522V71H79.3246V68.7522L71.4983 66.6639C70.5798 66.4209 69.9346 65.5855 69.9346 64.6287V54.2933C70.428 54.2478 70.9138 54.2022 71.3845 54.1642C77.2675 53.6782 95 54.1642 95 54.1642V51.2633C95 51.2633 91.0527 50.3293 90.2405 49.3269H90.2253ZM29.7024 50.3521V38.7941C29.7024 38.7941 31.5242 38.3157 32.215 38.0575C35.631 36.7589 43.3358 33.7517 48.5129 31.147C51.6783 29.5522 53.7582 27.6917 53.7582 27.6917L53.8341 39.2497V40.2445C45.3246 43.7757 36.3369 48.3169 29.7024 50.3521Z" fill="black"/>
</svg>
