<svg width="32" height="34" viewBox="0 0 32 34" fill="none" xmlns="http://www.w3.org/2000/svg">
<g clip-path="url(#clip0_1_73)">
<path d="M32 31.9968L23.6506 23.1257C25.8195 20.3073 26.8858 16.7111 26.6291 13.0809C26.3724 9.45062 24.8122 6.06408 22.2714 3.62173C19.7306 1.17939 16.4034 -0.131906 12.9781 -0.0409113C9.55288 0.0500838 6.29156 1.5364 3.86877 4.11061C1.44598 6.68483 0.0470946 10.15 -0.0385478 13.7893C-0.12419 17.4287 1.10997 20.9638 3.40865 23.6634C5.70733 26.363 8.89466 28.0207 12.3114 28.2934C15.7281 28.5662 19.1127 27.4332 21.7653 25.1288L30.1146 34L32 31.9968ZM13.3333 25.5C11.2236 25.5 9.16133 24.8353 7.4072 23.59C5.65308 22.3447 4.28591 20.5746 3.47857 18.5037C2.67124 16.4328 2.46 14.1541 2.87158 11.9556C3.28315 9.75719 4.29905 7.73778 5.79081 6.15279C7.28257 4.56779 9.18319 3.48839 11.2523 3.0511C13.3215 2.6138 15.4662 2.83823 17.4152 3.69603C19.3643 4.55382 21.0302 6.00644 22.2023 7.8702C23.3744 9.73396 24 11.9251 24 14.1667C23.9968 17.1714 22.872 20.0521 20.8723 22.1768C18.8726 24.3015 16.1613 25.4966 13.3333 25.5Z" fill="black"/>
</g>
<defs>
<clipPath id="clip0_1_73">
<rect width="32" height="34" fill="white"/>
</clipPath>
</defs>
</svg>
